<?xml version="1.0" encoding="utf-8"?>
<!-- Generator: Adobe Illustrator 25.2.3, SVG Export Plug-In . SVG Version: 6.00 Build 0)  -->
<svg version="1.1" id="Laag_1" xmlns="http://www.w3.org/2000/svg" xmlns:xlink="http://www.w3.org/1999/xlink" x="0px" y="0px"
	 viewBox="0 0 283.46 396.85" style="enable-background:new 0 0 283.46 396.85;" xml:space="preserve">
<style type="text/css">
	.st0{fill:#E61C5C;}
	.st1{fill:#F0821E;}
	.st2{fill:#2384C6;}
	.st3{fill:#76B946;}
	.st4{fill:#FFFFFF;}
	.st5{fill:none;stroke:#76B946;stroke-width:0.5;stroke-linecap:round;stroke-miterlimit:10;stroke-dasharray:3;}
</style>
<g>
	<g>
		<path class="st0" d="M33.16,194.45c4.83,6,9.37,12.41,12.87,19.22c0.35,1.05-0.8,2.1-1.61,2.65c-2.16,1.25-4.94,2.71-6.13,1.24
			c-0.18-0.2-0.36-0.51-0.62-1.02c-3.14-5.6-6.39-11.31-10.16-16.86c-0.2,0.23-0.45,0.41-0.7,0.65c0.38,5.45,0.82,10.89,0.93,16.31
			c0,0-0.02,2.37-2.52,2.78c-2.45,0.25-5.54,0.55-6.17-2.62c-0.06-0.8-0.17-3.48-0.28-6.91c-0.28-7.55-0.46-15.16-1.15-23.7
			c-0.25-3.1-0.42-5.18-0.42-5.18s-0.34-1.58,1.56-1.95c1.97-0.26,5.67-0.99,5.97,0.7c0.44,3.51,0.88,7.02,1.22,10.49
			c3.75-4.12,7.44-8.39,10.85-12.8c0,0,1.04-1.16,3.13,0.18c2.15,1.33,4.76,3.05,3.74,5.07c-0.28,0.56-1.39,2.04-3.01,3.95
			C38.28,189.26,35.8,191.82,33.16,194.45z"/>
		<path class="st1" d="M60.36,215.26c0,0,0.13,2.3-2.35,2.77c-2.47,0.53-5.54,1.11-6.3-2.09c-0.76-3.15-2.63-35.74-2.63-35.74
			s-0.38-1.63,1.53-1.88c1.96-0.26,5.72-0.92,5.95,0.84L60.36,215.26z"/>
		<path class="st2" d="M93.75,217.14c0,0,0.07,1.67-1.96,1.61c-2.19-0.11-6.08,0.49-7.51-1.89c-0.5-0.72-2.02-3.43-3.56-6.84
			c-2.55-5.6-5.21-11.16-7.9-17.14l-0.8,22.42c0,0-0.17,2.3-2.65,2.49c-2.53,0.19-5.7,0.29-5.96-2.94
			c-0.36-3.29,2.25-35.75,2.25-35.75s-0.07-1.67,1.86-1.67c1.18-0.04,6.17-0.16,6.71,0.89c4.2,7.83,8.29,15.71,12.22,23.7
			l1.37-20.95c0,0,0.28-2.29,2.81-2.43c2.52-0.08,5.64-0.13,5.84,3.15C96.66,185.02,93.75,217.14,93.75,217.14z"/>
		<path class="st3" d="M129.59,202.9c0.2,3.91-0.89,7.82-3.41,10.85c-4.45,5.36-12.29,5.54-18.09,2.05
			c-9.93-6.18-11.24-21.55-4.74-30.91c5.4-7.92,18.45-10.42,23.18,0.01c0.75,1.71,1.09,3.61,1.27,5.58
			c-0.02,0.92-0.37,1.86-1.37,2.06c-0.95,0.14-3.22,0.62-4.37,0.4c-1.19-0.11-1.55-1.09-1.78-2.42c-0.3-3.2-2.28-4.84-4.59-4.85
			c-3.28-0.02-5.63,3.05-6.86,6.01c-0.79,1.95-1.12,4.19-1.02,6.39c0.11,2.36,0.44,4.75,1.61,6.9c1.36,2.46,3.74,5.03,6.95,4.84
			c2.83-0.26,4.67-2.37,4.56-4.78l-7.2,1.2c0,0-1.01,0.09-1.61-2.33c-0.65-2.36-1.29-5.26,0.04-5.97c0.62-0.33,4.61-0.69,8.35-1.04
			c3.79-0.35,7.36-0.63,7.36-0.63s0.73-0.23,1.06,1.57C129.22,199.49,129.48,201.19,129.59,202.9z"/>
	</g>
	<g>
		<path class="st1" d="M170.39,209.26c-2.42,8.49-13.4,10.02-21.01,8.26c-0.33,0.07-0.66,0.08-0.98,0.09
			c-2.56-0.21-5.64-0.66-5.5-3.93c-0.01-0.76,0.41-3.29,0.9-6.69c0.54-3.44,1.24-7.67,1.8-11.75c0.73-5.36,1.64-10.86,1.85-16.39
			c0,0-0.01-1.67,1.93-1.65c1.41-0.04,3.74-0.12,4.95,0.52c7.3-0.11,16.56,3.92,17.36,10.88c0.36,3.12-0.44,6.53-4.24,10.1
			C170.24,201.47,171.45,205.56,170.39,209.26z M154.7,185.53c-0.14,2.79-0.42,5.45-0.61,8.29
			C164.33,195.65,165.88,185.48,154.7,185.53z M153.17,202.45c-0.29,2.28-0.57,4.52-0.86,6.8
			C163.74,211.93,165.43,201.08,153.17,202.45z"/>
		<path class="st2" d="M202.21,211.49c0.15,2.51,0.15,5.58-1.2,6.1c-0.36,0.15-1.49,0.15-3,0.15c-4.19,0.11-8.4,0.49-13,1.34
			c-2.21,0.44-4.77,0.76-6.06-1.9c-0.36-0.82-0.85-3.57-1.22-7.09c-0.96-9.32-2.02-19.01-2.29-28.4c-0.18-1.76,1.46-2.52,3.22-2.7
			c5.73-0.86,12.95-1.77,18.5-2.29c0,0,0.54,0.05,0.99,0.76c1.01,1.4,1.53,6.95-0.15,7.93c-1.04,0.38-10.1,0.67-13.73,0.99
			l0.67,8.54l9.9-1.08c2.7,0.1,2.63,7.21,1.19,7.9c-0.67,0.28-6.82,0.65-10.42,0.75c0.23,2.77,0.56,5.43,0.95,8.14
			c3.64-0.75,9.06-1.42,13.06-1.73C201.71,208.69,202.09,209.24,202.21,211.49z"/>
		<path class="st0" d="M234.91,195.35c0.72,6.08,0.52,12.4-0.06,18.59c-0.41,3.52-0.6,4.32-3.15,4.91
			c-1.18,0.11-2.64,0.27-3.73-0.53c-1.04-0.74-1.78-2.38-1.7-5.59c0.01-0.16,0.01-0.32,0.02-0.54c-3.56-0.63-10.36-0.85-13.68-0.98
			c-0.16,1.33-0.64,6.62-2.74,6.75c-0.97,0.01-2.37,0.17-3.58-0.25c-1.22-0.32-2.1-1.16-2.08-2.98c0.09-2.19,0.26-5.13,0.61-8.44
			c0.87-8.32,2.88-22.18,11.33-27.14c3.35-1.9,7.57-1.73,10.97,0.34C232.47,182.87,234.25,189.16,234.91,195.35z M226.6,203.43
			c0.79-10.15-2.13-16.16-5.45-16.35c-2.89-0.17-6.56,5.79-8,16.24C217.66,203.12,222.16,203.09,226.6,203.43z"/>
		<path class="st3" d="M255.43,204.88c2.38,2.79,6.67,5.33,9.33,5.95c3.32,1.13,0.71,8.54-2.81,7.79c-0.22-0.04-0.81-0.12-1.57-0.36
			c-4.3-1.36-7.83-4.79-11.22-8.55c0-0.11-0.06-0.1-0.17-0.21c0.1,2.14,0.14,4.34,0.24,6.53c0,0-0.05,2.36-2.56,2.64
			c-2.45,0.33-5.54,0.68-6.07-2.62c-0.34-1.54-0.37-10.44-0.44-19.01c-0.17-8.46-0.33-16.6-0.33-16.6s-0.34-1.65,1.63-1.84
			c1.01-0.15,2.5-0.33,3.8-0.23c1.33-0.11,2.67-0.18,4.12-0.19c6.43-0.08,14.23,2.84,16,9.99
			C267.29,195.87,261.61,201.81,255.43,204.88z M247.86,187.05c0.24,4.06,0.48,8.18,0.71,12.19
			C259.35,198.06,260.6,185.4,247.86,187.05z"/>
	</g>
	<g>
		<path class="st4" d="M33.33,192.13c1.44-1.49,2.87-2.99,4.26-4.52l2.05-2.32c0.35-0.38,0.68-0.78,1.01-1.17
			c0.3-0.41,0.68-0.79,0.82-1.28l0-0.01c0-0.01,0.01-0.01,0.01-0.01c0.01,0,0.01,0.01,0.01,0.01c-0.08,0.54-0.43,0.95-0.71,1.39
			c-0.3,0.42-0.63,0.83-0.96,1.23c-0.67,0.79-1.37,1.56-2.1,2.3c-1.43,1.5-2.9,2.96-4.39,4.4c0,0-0.01,0-0.02,0
			C33.32,192.15,33.32,192.14,33.33,192.13z"/>
	</g>
	<g>
		<path class="st4" d="M59.19,213.57l-1.89-14.52c-0.32-2.42-0.62-4.84-0.9-7.27c-0.24-2.43-0.55-4.85-0.68-7.29
			c0-0.01,0-0.01,0.01-0.01c0.01,0,0.01,0.01,0.01,0.01c0.28,2.42,0.59,4.85,0.91,7.27l0.85,7.27l1.71,14.55
			c0,0.01,0,0.01-0.01,0.01C59.2,213.59,59.19,213.58,59.19,213.57z"/>
	</g>
	<g>
		<path class="st4" d="M209.37,192.37c0.82-2.79,1.84-5.54,3.33-8.06c0.74-1.26,1.73-2.39,2.92-3.25c1.19-0.84,2.55-1.54,4.02-1.65
			c0.01,0,0.01,0,0.01,0.01c0,0.01-0.01,0.01-0.01,0.01c-1.43,0.25-2.74,0.94-3.87,1.82c-1.16,0.86-2.13,1.94-2.9,3.16
			c-0.77,1.23-1.4,2.54-1.97,3.87c-0.57,1.34-1.07,2.7-1.5,4.09c0,0.01-0.01,0.01-0.02,0.01
			C209.37,192.39,209.37,192.38,209.37,192.37z"/>
	</g>
	<g>
		<path class="st4" d="M158.63,216.21c1.94-0.67,3.83-1.49,5.61-2.5c0.88-0.51,1.73-1.09,2.5-1.75c0.77-0.65,1.48-1.42,1.78-2.41
			c0-0.01,0.01-0.01,0.02-0.01c0.01,0,0.01,0.01,0.01,0.01c-0.17,1.04-0.89,1.9-1.64,2.59c-0.78,0.69-1.65,1.26-2.56,1.74
			c-1.82,0.98-3.73,1.75-5.7,2.35c-0.01,0-0.01,0-0.02-0.01C158.62,216.22,158.62,216.21,158.63,216.21z"/>
	</g>
	<path class="st5" d="M126.74,209.68"/>
	<path class="st5" d="M113.93,220.15"/>
	<g>
		<path class="st4" d="M101.75,205.08c-0.58-2.27-0.85-4.63-0.82-6.98c0-1.18,0.13-2.35,0.35-3.51c0.24-1.16,0.63-2.28,1.15-3.33
			c0-0.01,0.01-0.01,0.02-0.01c0.01,0,0.01,0.01,0.01,0.02c-0.39,1.11-0.74,2.22-0.93,3.37c-0.21,1.14-0.36,2.3-0.4,3.47
			c-0.07,2.33,0.13,4.68,0.65,6.97c0,0.01,0,0.01-0.01,0.02C101.76,205.09,101.76,205.09,101.75,205.08z"/>
	</g>
	<g>
		<path class="st4" d="M183.78,217.43c2.12-0.31,4.25-0.58,6.38-0.8c2.13-0.24,4.27-0.44,6.42-0.29c0.01,0,0.01,0.01,0.01,0.01
			c0,0.01-0.01,0.01-0.01,0.01c-1.07,0.05-2.14,0.13-3.2,0.23l-3.2,0.24c-2.13,0.18-4.26,0.4-6.39,0.63c-0.01,0-0.01,0-0.01-0.01
			C183.77,217.44,183.77,217.43,183.78,217.43z"/>
	</g>
	<g>
		<path class="st4" d="M262.97,195.88c0.87-1.41,1.47-3.02,1.63-4.66c0.07-0.82,0-1.65-0.19-2.44c-0.15-0.81-0.56-1.54-0.96-2.27
			c0-0.01,0-0.01,0-0.02c0.01,0,0.01,0,0.02,0c0.52,0.65,0.97,1.39,1.18,2.22c0.2,0.82,0.27,1.69,0.15,2.52
			c-0.21,1.68-0.87,3.27-1.81,4.65c0,0.01-0.01,0.01-0.02,0C262.96,195.89,262.96,195.88,262.97,195.88z"/>
	</g>
	<g>
		<path class="st4" d="M93.14,179.46c0.64,0.32,1.07,0.92,1.39,1.54c0.31,0.63,0.52,1.31,0.64,2c0.07,0.34,0.11,0.69,0.15,1.04
			c0.01,0.35,0.04,0.7,0.04,1.05c-0.02,0.7-0.09,1.4-0.21,2.08c0,0.01-0.01,0.01-0.01,0.01c-0.01,0-0.01-0.01-0.01-0.01
			c-0.01-0.7,0.01-1.39-0.01-2.08c-0.01-0.69-0.05-1.38-0.14-2.06c-0.1-0.68-0.28-1.35-0.56-1.98c-0.28-0.62-0.68-1.23-1.28-1.57
			c-0.01,0-0.01-0.01-0.01-0.02C93.12,179.46,93.13,179.46,93.14,179.46z"/>
	</g>
</g>
</svg>
